<svg xmlns="http://www.w3.org/2000/svg" width="26" height="26" viewBox="0 0 26 26">
  <metadata><?xpacket begin="﻿" id="W5M0MpCehiHzreSzNTczkc9d"?>
<x:xmpmeta xmlns:x="adobe:ns:meta/" x:xmptk="Adobe XMP Core 5.6-c138 79.159824, 2016/09/14-01:09:01        ">
   <rdf:RDF xmlns:rdf="http://www.w3.org/1999/02/22-rdf-syntax-ns#">
      <rdf:Description rdf:about=""/>
   </rdf:RDF>
</x:xmpmeta>
                                                                                                    
                                                                                                    
                                                                                                    
                                                                                                    
                                                                                                    
                                                                                                    
                                                                                                    
                                                                                                    
                                                                                                    
                                                                                                    
                                                                                                    
                                                                                                    
                                                                                                    
                                                                                                    
                                                                                                    
                                                                                                    
                                                                                                    
                                                                                                    
                                                                                                    
                                                                                                    
                           
<?xpacket end="w"?></metadata>
<defs>
    <style>
      .cls-1 {
        fill: #fff;
        fill-rule: evenodd;
      }
    </style>
  </defs>
  <path class="cls-1" d="M241.458,74.666h-1.625V73.041a0.542,0.542,0,0,0-.541-0.542h-2.167a0.542,0.542,0,0,0-.542.542v1.624H225.208a0.542,0.542,0,0,0-.541.542V88.749h-3.25V75.694a4.875,4.875,0,1,0-1.084,0V90.375a0.542,0.542,0,0,0,1.084,0V89.833h3.25v1.625a0.541,0.541,0,0,0,.541.542h16.25A0.542,0.542,0,0,0,242,91.458V75.208A0.543,0.543,0,0,0,241.458,74.666Zm-20.583-5.416a1.627,1.627,0,0,0-1.625,1.625,0.542,0.542,0,1,1-1.083,0,2.712,2.712,0,0,1,2.708-2.709A0.542,0.542,0,1,1,220.875,69.249Zm17.875,19.5H227.917V77.916H238.75V88.749Zm-5.417-1.083A4.333,4.333,0,1,0,229,83.333,4.338,4.338,0,0,0,233.333,87.667Zm0-6.5a0.542,0.542,0,1,1,0,1.083,1.085,1.085,0,0,0-1.083,1.084,0.542,0.542,0,1,1-1.083,0A2.168,2.168,0,0,1,233.333,81.166Z" transform="translate(-216 -66)"/>
</svg>
